<svg width="32" height="32" viewBox="0 0 32 32" fill="none" xmlns="http://www.w3.org/2000/svg">
<path fill-rule="evenodd" clip-rule="evenodd" d="M0 4.80005V24C0 25.7674 1.43269 27.2 3.2 27.2H28.8C30.5673 27.2 32 25.7674 32 24V4.80005H0ZM31.2 5.60005H0.8V7.40309L16 19.0954L31.2 7.40309V5.60005ZM0.8 24V8.41239L12.2696 17.2352L1.43263 25.6238C1.03982 25.1964 0.8 24.6262 0.8 24ZM2.08853 26.1277C2.42083 26.3017 2.79893 26.4 3.2 26.4H28.8C29.2011 26.4 29.5792 26.3017 29.9115 26.1277L19.0749 17.7394L16 20.1047L12.9251 17.7394L2.08853 26.1277ZM19.7304 17.2352L30.5674 25.6238C30.9602 25.1964 31.2 24.6262 31.2 24V8.41239L19.7304 17.2352Z" fill="black"/>
</svg>
