<svg width="32" height="32" viewBox="0 0 32 32" fill="none" xmlns="http://www.w3.org/2000/svg">
<path fill-rule="evenodd" clip-rule="evenodd" d="M8.6 11.8H8.2C7.87828 18.5562 13.4438 24.1217 20.2 23.8V23.4C20.2 21.6327 21.6327 20.2 23.4 20.2H30V22C30 26.4183 26.4183 30 22 30C10.9543 30 2 21.0457 2 10C2 5.58172 5.58172 2 10 2H11.8V8.6C11.8 10.3673 10.3673 11.8 8.6 11.8ZM23.4 21H29.2V22C29.2 25.9765 25.9765 29.2 22 29.2C11.3961 29.2 2.8 20.6039 2.8 10C2.8 6.02355 6.02355 2.8 10 2.8H11V8.6C11 9.92548 9.92548 11 8.6 11H7.43719L7.40091 11.7619C7.05674 18.9895 13.0105 24.9433 20.2381 24.5991L21 24.5628V23.4C21 22.0745 22.0745 21 23.4 21Z" fill="black"/>
<path d="M20.8 2.8C25.4392 2.8 29.2 6.56081 29.2 11.2H30C30 6.11898 25.881 2 20.8 2V2.8Z" fill="black"/>
<path d="M20.8 5.2C24.1137 5.2 26.8 7.88629 26.8 11.2H27.6C27.6 7.44446 24.5555 4.4 20.8 4.4V5.2Z" fill="black"/>
<path d="M24.4 11.2C24.4 9.21178 22.7882 7.6 20.8 7.6V6.8C23.2301 6.8 25.2 8.76995 25.2 11.2H24.4Z" fill="black"/>
</svg>
