<svg width="80" height="80" viewBox="0 0 80 80" fill="none" xmlns="http://www.w3.org/2000/svg">
<path fill-rule="evenodd" clip-rule="evenodd" d="M41.5518 12.5644C42.1456 12.3928 42.7135 12.1203 43.2252 11.7469C48.6915 7.75833 54.9805 6.00842 60.9957 7.56244C67.5669 9.26012 72.3816 14.528 74.9222 21.4865C77.4632 28.4459 77.7701 37.1749 75.3064 46.0401C72.8427 54.9056 68.052 62.3105 62.252 67.1047C56.4559 71.8956 49.5699 74.1338 43.0044 72.4376C41.96 72.1678 40.9575 71.8068 40 71.3616C39.0425 71.8068 38.04 72.1678 36.9956 72.4376C30.4302 74.1338 23.5441 71.8956 17.748 67.1047C11.948 62.3105 7.15734 54.9056 4.69355 46.0401C2.22988 37.1749 2.53681 28.4459 5.07778 21.4865C7.6184 14.528 12.4331 9.26012 19.0043 7.56244C25.0195 6.00842 31.3085 7.75833 36.7748 11.7469C37.5804 12.3347 38.5253 12.6725 39.491 12.7601C40.2645 7.94669 41.9152 3.67603 44.1797 0.428101L45.8203 1.57196C43.8281 4.42927 42.3153 8.22415 41.5518 12.5644ZM41.2448 14.681C41.1237 15.7351 41.046 16.8158 41.0151 17.9178C42.6622 17.6486 44.1376 16.7327 45.2179 15.3769L46.7821 16.6232C45.1484 18.6735 42.7274 20 40 20C37.2726 20 34.8516 18.6735 33.2179 16.6232L34.7821 15.3769C35.8688 16.7407 37.3553 17.6595 39.0143 17.9225C39.0428 16.8449 39.1141 15.7838 39.2257 14.7438C37.937 14.6124 36.6778 14.152 35.5959 13.3625C30.4802 9.62973 24.7978 8.13138 19.5046 9.49886C13.7362 10.9891 9.33716 15.652 6.95647 22.1724C4.57614 28.6919 4.25418 36.9896 6.62053 45.5046C8.98675 54.0191 13.5705 61.0568 19.0223 65.5631C24.478 70.0727 30.7212 71.993 36.4954 70.5012C37.566 70.2246 38.5861 69.8401 39.553 69.357L40 69.1336L40.447 69.357C41.4139 69.8401 42.434 70.2246 43.5046 70.5012C49.2788 71.993 55.522 70.0727 60.9777 65.5631C66.4295 61.0568 71.0132 54.0191 73.3795 45.5046C75.7458 36.9896 75.4239 28.6919 73.0435 22.1724C70.6628 15.652 66.2638 10.9891 60.4954 9.49886C55.2022 8.13138 49.5198 9.62973 44.4041 13.3625C43.4543 14.0556 42.3679 14.4951 41.2448 14.681Z" fill="black"/>
</svg>
