<svg width="80" height="80" viewBox="0 0 80 80" fill="none" xmlns="http://www.w3.org/2000/svg">
<path d="M50 13C50 14.1045 49.1045 15 48 15C46.8954 15 46 14.1045 46 13C46 11.8954 46.8954 11 48 11C49.1045 11 50 11.8954 50 13Z" fill="black"/>
<path fill-rule="evenodd" clip-rule="evenodd" d="M73 75V72.883C73 70.7308 71.6228 68.8201 69.5811 68.1396L69.0513 67.963C67.8263 67.5546 67 66.4082 67 65.1169V29H76.3539L69.0417 5.23535C68.2751 2.74382 65.7229 1.25935 63.1782 1.82484L58.7123 2.81726C57.8305 3.01323 57.0838 3.59617 56.6798 4.40418L55.4174 6.92907L49.8087 6.30588C47.8225 6.08519 45.8268 6.62983 44.2281 7.8289C43.2145 8.58904 41.9818 8.99995 40.7149 8.99995H30L30 11.5L30 13.7537C30 17.8836 32.8107 21.4834 36.8172 22.485L37.6026 22.6814C38.2726 22.8489 38.9141 23.1146 39.5063 23.4699L42.449 25.2356L22.319 47.7811C21.3081 48.9134 20.4615 50.1665 19.7933 51.5035C17.3119 49.297 15.4606 46.9498 14.1805 43.6963C12.7465 40.0514 12 35.1945 12 28V26.0442L10.4145 27.1893C9.23788 28.0391 8.1902 28.9716 7.26807 29.9618C6.74207 30.5267 6.25705 31.1101 5.81232 31.7076L7.41661 32.9018C7.81787 32.3628 8.25598 31.8357 8.73172 31.3248C9.13437 30.8924 9.56406 30.4716 10.0213 30.0649C10.1537 36.2918 10.9053 40.8344 12.3194 44.4286C13.8309 48.2702 16.0717 50.9589 18.9711 53.44C18.3336 55.2443 18 57.158 18 59.1034V60.4593C13.7847 60.1198 9.40222 57.6849 6.89861 54.2071C7.88969 54.2471 9.06172 54.2074 10.1961 53.9805L9.80386 52.0194C7.97318 52.3855 5.94689 52.1695 5.1961 52.0194L3.1912 51.6184L4.10555 53.4472C6.63219 58.5006 12.4332 62.0757 18 62.4647V75H73ZM67.1302 5.82352C66.6702 4.3286 65.1389 3.43792 63.6121 3.77722L59.1462 4.76964C58.8522 4.83496 58.6034 5.02927 58.4687 5.29861L56.5826 9.07084L49.5878 8.29365C48.1073 8.12915 46.6198 8.53512 45.4281 9.42889C44.0683 10.4487 42.4145 11 40.7149 11H34.95C34.9828 11.1615 35 11.3287 35 11.5C35 12.8807 33.8807 14 32.5 14C32.3297 14 32.1634 13.9829 32.0027 13.9505C32.0899 17.0796 34.2499 19.7816 37.3022 20.5447L38.0876 20.7411C38.9491 20.9564 39.7739 21.2981 40.5353 21.7549L44.4816 24.1227L48.4472 26.1055L47.5528 27.8944L44.2367 26.2363L23.8109 49.1132C21.3566 51.8621 20 55.4183 20 59.1034V73H48V72.4721C48 71.3358 47.358 70.297 46.3416 69.7888L42.7639 68C41.07 67.153 40 65.4217 40 63.5278V60C40 56.134 36.866 53 33 53H31V51H33C37.9706 51 42 55.0294 42 60V63.5278C42 64.6641 42.642 65.7029 43.6583 66.2111L47.2361 68C48.93 68.8469 50 70.5782 50 72.4721V73H61V72.883C61 71.5917 60.1737 70.4453 58.9487 70.0369L58.4188 69.8603C56.3771 69.1798 55 67.2691 55 65.1169V51.723L61.1425 41.4855L62.8575 42.5145L57 52.2769V65.1169C57 66.4082 57.8263 67.5546 59.0513 67.963L59.5811 68.1396C61.6228 68.8201 63 70.7308 63 72.883V73H71V72.883C71 71.5917 70.1737 70.4453 68.9487 70.0369L68.4188 69.8603C66.3771 69.1798 65 67.2691 65 65.1169V29H62.8703C57.5334 29 53.3689 24.3824 53.918 19.0739L54.5053 13.3971L56.4947 13.6029L55.9074 19.2797C55.4803 23.4085 58.7194 27 62.8703 27H73.646L67.1302 5.82352Z" fill="black"/>
<path d="M4.78071 33.2329C2.80912 36.4551 1.91203 39.9633 2.01424 43.0935C2.11597 46.2091 3.21857 49.0554 5.37528 50.7808L6.62468 49.2191C5.05929 47.9668 4.10228 45.7573 4.01317 43.0282C3.96097 41.4294 4.21037 39.688 4.78814 37.9318C4.90214 38.4744 5.0422 39.0039 5.19633 39.5093C5.76462 41.3726 6.56271 43.03 7.13816 44.0073L8.86162 42.9926C8.35957 42.1399 7.62803 40.6266 7.10933 38.9259C6.58501 37.2067 6.31582 35.4168 6.6136 33.9543L4.78071 33.2329Z" fill="black"/>
</svg>
