<svg width="80" height="80" viewBox="0 0 80 80" fill="none" xmlns="http://www.w3.org/2000/svg">
<path fill-rule="evenodd" clip-rule="evenodd" d="M40 55C41.6568 55 43 56.3432 43 58C43 59.6569 41.6568 61 40 61C38.3431 61 37 59.6569 37 58C37 56.3432 38.3431 55 40 55ZM41 58C41 57.4477 40.5522 57 40 57C39.4477 57 39 57.4477 39 58C39 58.5523 39.4477 59 40 59C40.5522 59 41 58.5523 41 58Z" fill="black"/>
<path fill-rule="evenodd" clip-rule="evenodd" d="M36 49C36 46.2386 33.7614 44 31 44C28.2385 44 26 46.2386 26 49C26 51.7614 28.2385 54 31 54C33.7614 54 36 51.7614 36 49ZM31 46C32.6568 46 34 47.3432 34 49C34 50.6569 32.6568 52 31 52C29.3431 52 28 50.6569 28 49C28 47.3432 29.3431 46 31 46Z" fill="black"/>
<path fill-rule="evenodd" clip-rule="evenodd" d="M56 54C59.8659 54 63 57.134 63 61C63 64.866 59.8659 68 56 68C52.134 68 49 64.866 49 61C49 57.134 52.134 54 56 54ZM61 61C61 58.2386 58.7614 56 56 56C53.2385 56 51 58.2386 51 61C51 63.7614 53.2385 66 56 66C58.7614 66 61 63.7614 61 61Z" fill="black"/>
<path fill-rule="evenodd" clip-rule="evenodd" d="M26 5H54V13H49V20.1242L73.6341 61.3865C77.2157 67.3855 72.8934 75 65.9066 75H14.0933C7.10648 75 2.7842 67.3855 6.36571 61.3865L31 20.1242V13H26V5ZM28 7V11H33V20.6758L25.6189 33.0391C32.1435 33.3606 35.9837 35.6168 39.9438 37.9434C40.3356 38.1736 40.7291 38.4048 41.126 38.6346C45.6117 41.2316 50.7764 43.8194 60.9194 43.991L47 20.6758V11H52V7H28ZM8.08296 62.4117L24.4464 35.003C31.1356 35.0943 34.7902 37.2388 38.9427 39.6754C39.3311 39.9034 39.7239 40.1338 40.1239 40.3654C44.9816 43.1778 50.6955 46 62 46C62.0388 46 62.0772 45.9978 62.115 45.9935L71.9169 62.4117C74.7025 67.0776 71.3408 73 65.9066 73H14.0933C8.65911 73 5.29733 67.0776 8.08296 62.4117Z" fill="black"/>
</svg>
