<svg width="80" height="80" viewBox="0 0 80 80" fill="none" xmlns="http://www.w3.org/2000/svg">
<path d="M15 19C15 20.6569 16.3431 22 18 22C19.6569 22 21 20.6569 21 19H23C23 21.7614 20.7614 24 18 24C15.2386 24 13 21.7614 13 19H15Z" fill="black"/>
<path d="M29 19C29 20.6569 30.3431 22 32 22C33.6569 22 35 20.6569 35 19H37C37 21.7614 34.7614 24 32 24C29.2386 24 27 21.7614 27 19H29Z" fill="black"/>
<path d="M47 41C45.3431 41 44 42.3431 44 44H42C42 41.2386 44.2386 39 47 39C49.7614 39 52 41.2386 52 44H50C50 42.3431 48.6569 41 47 41Z" fill="black"/>
<path fill-rule="evenodd" clip-rule="evenodd" d="M55 61C47.8203 61 42 55.1797 42 48V47H68V48C68 55.1797 62.1797 61 55 61ZM55 59C60.738 59 65.4499 54.6065 65.9552 49H44.0448C44.5501 54.6065 49.262 59 55 59Z" fill="black"/>
<path d="M63 41C61.3431 41 60 42.3431 60 44H58C58 41.2386 60.2386 39 63 39C65.7614 39 68 41.2386 68 44H66C66 42.3431 64.6569 41 63 41Z" fill="black"/>
<path fill-rule="evenodd" clip-rule="evenodd" d="M5 5V28.7087C5 36.5529 8.6818 43.9424 14.944 48.6666L25 56.2526L35 48.7088V49.7086C35 57.5529 38.6818 64.9424 44.944 69.6665L55 77.2526L65.056 69.6665C71.3182 64.9424 75 57.5529 75 49.7087V26H45V5H5ZM43 26V7H7V28.7087C7 35.9254 10.3873 42.7237 16.1485 47.0699L25 53.7474L33.8515 47.0699C34.2455 46.7727 34.6285 46.4639 35 46.1444V40H14V39C14 32.9249 18.9249 28 25 28C29.4372 28 33.2608 30.6273 35 34.411V26H43ZM33.9451 38C33.4476 33.5 29.6326 30 25 30C20.3674 30 16.5524 33.5 16.0549 38H33.9451ZM37 28V49.7086C37 56.9254 40.3873 63.7237 46.1485 68.0699L55 74.7474L63.8515 68.0699C69.6127 63.7237 73 56.9254 73 49.7087V28H37Z" fill="black"/>
</svg>
