<svg width="80" height="80" viewBox="0 0 80 80" fill="none" xmlns="http://www.w3.org/2000/svg">
<path fill-rule="evenodd" clip-rule="evenodd" d="M15.6977 2.04847C25.6422 -2.33945 36.7181 3.03109 40 12.6622C43.2819 3.03109 54.3578 -2.33945 64.3024 2.04847L70.0688 4.59284L69.7835 7.38318C68.526 19.6826 55.5281 27.082 44.3101 21.8847L41 20.3511V36H70L69.3516 46.3743C69.2105 48.6319 67.8335 50.5334 65.9043 51.4366L64.4979 72.5322C64.2177 76.7345 60.7273 80 56.5156 80H23.4844C19.2727 80 15.7823 76.7345 15.5022 72.5322L14.0958 51.4366C12.1665 50.5334 10.7895 48.6319 10.6484 46.3743L10 36H39V20.3511L35.69 21.8847C24.4719 27.082 11.4741 19.6826 10.2166 7.38318L9.93127 4.59284L15.6977 2.04847ZM16.5051 3.87826C26.3438 -0.462957 37.4283 5.94166 38.8193 16.3537L27.4191 11.092L26.581 12.908L38.467 18.3938L34.8492 20.07C24.8776 24.6898 13.324 18.1126 12.2062 7.17975L12.0688 5.83573L16.5051 3.87826ZM16.6367 50C14.5245 50 12.7763 48.3577 12.6445 46.2495L12.1289 38H67.8711L67.3555 46.2495C67.2238 48.3577 65.4756 50 63.3633 50H16.6367ZM63.8623 52L62.5023 72.3991C62.2922 75.5509 59.6744 78 56.5156 78H23.4844C20.3257 78 17.7079 75.5509 17.4977 72.3991L16.1378 52H63.8623ZM41.1807 16.3537C42.5717 5.94166 53.6563 -0.462958 63.495 3.87826L67.9313 5.83573L67.7939 7.17975C66.6761 18.1126 55.1224 24.6898 45.1508 20.07L41.533 18.3938L53.4191 12.908L52.581 11.092L41.1807 16.3537Z" fill="black"/>
</svg>
