<svg width="80" height="80" viewBox="0 0 80 80" fill="none" xmlns="http://www.w3.org/2000/svg">
<path fill-rule="evenodd" clip-rule="evenodd" d="M48 40H66V50C66 54.4183 62.4183 58 58 58H56C51.5817 58 48 54.4183 48 50V40ZM50 50V42H64V50C64 53.3137 61.3137 56 58 56H56C52.6863 56 50 53.3137 50 50Z" fill="black"/>
<path fill-rule="evenodd" clip-rule="evenodd" d="M23 5V11.7714L9.67392 17.8633C6.82643 19.1651 5 22.0082 5 25.1391V67C5 71.4183 8.58172 75 13 75H67C71.4183 75 75 71.4183 75 67V25.1391C75 22.0082 73.1736 19.1651 70.3261 17.8634L57 11.7714V5H23ZM56.9991 13.9701C56.9674 16.2067 56.1037 18.3533 54.5738 19.9894L45.6105 29.5751L41 23.1205L41 73H67C70.3137 73 73 70.3137 73 67V25.1391C73 22.791 71.6302 20.6586 69.4946 19.6823L56.9991 13.9701ZM39 23.1205L34.3895 29.5751L25.4262 19.9894C23.8963 18.3533 23.0326 16.2067 23.0009 13.9701L10.5054 19.6823C8.36982 20.6586 7 22.791 7 25.1391V67C7 70.3137 9.68629 73 13 73H39L39 23.1205ZM53.3386 7L40 18.6712L26.6614 7H53.3386ZM25 13.8424V8.20377L38.6597 20.156L34.1819 26.4249L26.887 18.6234C25.6745 17.3267 25 15.6177 25 13.8424ZM41.3403 20.156L55 8.20377V13.8424C55 15.6177 54.3255 17.3267 53.113 18.6234L45.8181 26.4249L41.3403 20.156Z" fill="black"/>
</svg>
