<svg width="80" height="80" viewBox="0 0 80 80" fill="none" xmlns="http://www.w3.org/2000/svg">
<path d="M47.3464 13.2431C45.3487 14.9683 42.7892 16 40 16C37.2108 16 34.6513 14.9683 32.6536 13.2431L31.3464 14.7569C33.6874 16.7784 36.7051 18 40 18C43.2949 18 46.3126 16.7784 48.6536 14.7569L47.3464 13.2431Z" fill="#2E2E2E"/>
<path fill-rule="evenodd" clip-rule="evenodd" d="M68 44C68 57.962 61.4598 70.0145 52 75.6319C51.9254 75.6762 51.8505 75.7201 51.7755 75.7636C51.2049 76.0947 50.6238 76.4025 50.0331 76.686L50.0143 76.695C50.0077 76.6982 50 76.6934 50 76.686V55C50 49.4772 45.5228 45 40 45C34.4772 45 30 49.4772 30 55V76.686C30 76.6934 29.9923 76.6982 29.9857 76.695L29.9669 76.686C29.3762 76.4025 28.7951 76.0947 28.2245 75.7636C28.1495 75.7201 28.0746 75.6762 28 75.6318C18.5402 70.0145 12 57.962 12 44C12 41.0169 11.1694 38.0862 9.85978 35.4059C9.10498 33.8611 8.47612 32.2062 7.99806 30.4596C4.74203 18.5641 9.71453 6.92423 19.1044 4.46124C23.1886 3.38996 27.4358 4.23124 31.1994 6.50283C33.8415 8.09748 36.914 9 40 9C43.086 9 46.1585 8.09748 48.8006 6.50283C52.5642 4.23124 56.8114 3.38996 60.8956 4.46124C70.2855 6.92423 75.258 18.5641 72.0019 30.4596C71.5239 32.2062 70.895 33.8611 70.1402 35.4059C68.8306 38.0862 68 41.0169 68 44ZM11.6567 34.5279C10.9569 33.0955 10.3722 31.5578 9.9271 29.9316C6.83814 18.6464 11.7108 8.46826 19.6119 6.3958C23.0889 5.48376 26.7843 6.17406 30.166 8.21512C33.1022 9.98734 36.5296 11 40 11C43.4704 11 46.8978 9.98734 49.8341 8.21512C53.2157 6.17406 56.9111 5.48376 60.3881 6.3958C68.2892 8.46826 73.1619 18.6464 70.0729 29.9316C69.6278 31.5578 69.0431 33.0955 68.3433 34.5279C66.9318 37.4167 66 40.6478 66 44C66 56.8733 60.2071 67.8211 52 73.2696V55C52 48.3726 46.6274 43 40 43C33.3726 43 28 48.3726 28 55V73.2696C19.7929 67.8211 14 56.8733 14 44C14 40.6478 13.0682 37.4167 11.6567 34.5279Z" fill="#2E2E2E"/>
</svg>
