<svg width="62" height="76" viewBox="0 0 62 76" fill="none" xmlns="http://www.w3.org/2000/svg">
<path fill-rule="evenodd" clip-rule="evenodd" d="M35.8599 0L34.9757 2.38934C34.9169 2.54822 34.8533 2.70466 34.7851 2.85848C33.9807 4.67098 32.5308 6.12088 30.7183 6.9252C30.5645 6.99346 30.4081 7.05707 30.2492 7.11586L27.8599 8L30.2492 8.88414C30.4081 8.94293 30.5645 9.00654 30.7183 9.0748C32.5308 9.87912 33.9807 11.329 34.7851 13.1415C34.8533 13.2953 34.9169 13.4518 34.9757 13.6107L35.8599 16L36.744 13.6107C36.8028 13.4518 36.8664 13.2953 36.9347 13.1415C37.739 11.329 39.1889 9.87912 41.0014 9.0748C41.1552 9.00654 41.3116 8.94293 41.4705 8.88414L43.8599 8L41.4705 7.11586C41.3116 7.05707 41.1552 6.99346 41.0014 6.9252C39.1889 6.12088 37.739 4.67098 36.9347 2.85848C36.8664 2.70466 36.8028 2.54822 36.744 2.38934L35.8599 0ZM35.8599 5.05919C35.0966 6.23447 34.0943 7.23678 32.9191 8C34.0943 8.76322 35.0966 9.76553 35.8599 10.9408C36.6231 9.76553 37.6254 8.76322 38.8007 8C37.6254 7.23678 36.6231 6.23447 35.8599 5.05919Z" fill="black"/>
<path fill-rule="evenodd" clip-rule="evenodd" d="M53.0905 5.07126C54.9988 4.23696 57.0936 4.12672 58.7624 5.25497C60.137 6.18434 60.8575 7.71476 61.0487 9.39186C61.1867 10.6024 61.057 11.9278 60.6806 13.2655L55.8934 31.1354L56.8593 31.3942L55.3575 36.9992C56.8213 38.4655 57.4849 40.6507 56.9101 42.7959L48.1102 75.6374L26.8599 69.9433L35.6597 37.1019C36.2345 34.9567 37.9019 33.396 39.9027 32.8581L41.4045 27.2531L42.3714 27.5122L46.044 13.8058C46.3946 12.4265 47.0132 11.0136 47.8923 9.67624C49.3075 7.5232 51.1725 5.90977 53.0905 5.07126ZM53.8917 6.90378C52.3806 7.56441 50.7993 8.89475 49.5636 10.7748C48.8 11.9365 48.2742 13.1478 47.981 14.3041C47.308 16.9583 47.8988 19.0055 49.1627 19.86C50.0755 20.4771 51.3925 20.5329 52.9132 19.868C54.4243 19.2074 56.0056 17.877 57.2413 15.997C57.6656 15.3515 58.0169 14.69 58.2957 14.0305C58.968 12.4399 59.2066 10.8905 59.0616 9.6184C58.9167 8.34715 58.404 7.42686 57.6422 6.91183C56.7293 6.29465 55.4124 6.23893 53.8917 6.90378ZM56.9455 19.4815L53.9615 30.6178L44.3033 28.0298L46.5023 19.8228C46.8739 20.4918 47.3824 21.0705 48.0425 21.5168C49.7113 22.6451 51.806 22.5348 53.7144 21.7005C54.8359 21.2102 55.9395 20.4548 56.9455 19.4815ZM42.0423 32.6004L42.8187 29.7026L42.8197 29.7029L54.4098 32.8084L53.6334 35.7062L42.0423 32.6004ZM37.5916 37.6195C38.1633 35.4856 40.3567 34.2193 42.4905 34.7911L52.1498 37.3793C54.2837 37.951 55.55 40.1444 54.9782 42.2782L46.696 73.1879L29.3094 68.5291L37.5916 37.6195Z" fill="black"/>
<path fill-rule="evenodd" clip-rule="evenodd" d="M0 18.1866L16 45.8994L33.3205 35.8994L17.3205 8.18661L0 18.1866ZM13.6603 21.8469C16.4932 20.2113 18.2231 17.3988 18.5889 14.3836L30.5885 35.1674L16.732 43.1674L4.73254 22.3836C7.52673 23.5744 10.8273 23.4825 13.6603 21.8469ZM12.6603 20.1148C9.43199 21.9787 5.44465 21.3368 2.95032 18.7926L16.3702 11.0447C17.3263 14.4769 15.8885 18.251 12.6603 20.1148Z" fill="black"/>
<path fill-rule="evenodd" clip-rule="evenodd" d="M10.8599 46L12.2192 51.5038C13.0536 54.8819 15.0708 57.8186 17.8639 59.808C18.4916 60.2551 19.1584 60.6544 19.8599 61C19.1584 61.3456 18.4916 61.7449 17.8639 62.192C15.0708 64.1814 13.0536 67.1181 12.2192 70.4962L10.8599 76L9.5005 70.4962C8.66615 67.1181 6.64891 64.1814 3.85583 62.192C3.22815 61.7449 2.56129 61.3456 1.85986 61C2.56129 60.6544 3.22815 60.2551 3.85583 59.808C6.64892 57.8186 8.66615 54.8819 9.5005 51.5038L10.8599 46ZM5.60178 61C7.96835 59.1505 9.79197 56.6805 10.8599 53.8545C11.9278 56.6805 13.7514 59.1505 16.1179 61C13.7514 62.8495 11.9278 65.3195 10.8599 68.1455C9.79197 65.3195 7.96835 62.8495 5.60178 61Z" fill="black"/>
</svg>
