<svg width="24" height="24" viewBox="0 0 24 24" fill="none" xmlns="http://www.w3.org/2000/svg">
<path d="M8.94501 22.0001C7.28009 22.013 5.78871 20.9726 5.22601 19.4056C4.66332 17.8386 5.15216 16.0871 6.44501 15.038C5.52801 14.2958 4.99524 13.1792 4.99524 11.9995C4.99524 10.8198 5.52801 9.7032 6.44501 8.96102C5.15174 7.91226 4.66261 6.16065 5.22541 4.59358C5.78821 3.02651 7.28 1.98634 8.94501 1.99989H15.055C16.72 1.98634 18.2118 3.02651 18.7746 4.59358C19.3374 6.16065 18.8483 7.91226 17.555 8.96102C18.8479 10.0101 19.3367 11.7616 18.774 13.3286C18.2113 14.8956 16.7199 15.936 15.055 15.923C14.286 15.924 13.5335 15.7001 12.89 15.279V18.079C12.8806 20.25 11.116 22.0039 8.94501 22.0001ZM8.92301 15.924C7.73855 15.9427 6.7917 16.9148 6.80413 18.0993C6.81655 19.2839 7.78357 20.2359 8.96816 20.2298C10.1528 20.2236 11.1099 19.2616 11.11 18.077V15.924H8.92201H8.92301ZM15.056 9.84702C13.8684 9.85309 12.91 10.8197 12.914 12.0073C12.9181 13.1949 13.883 14.155 15.0707 14.153C16.2583 14.151 17.22 13.1877 17.22 12C17.2156 10.8081 16.2469 9.84481 15.055 9.84702H15.056ZM8.94601 9.84699C8.17682 9.84291 7.46386 10.2495 7.07571 10.9136C6.68755 11.5776 6.68317 12.3984 7.06421 13.0666C7.44524 13.7348 8.15382 14.1489 8.92301 14.153H11.11V9.84699H8.94601ZM12.89 3.77002V8.07704H15.054C16.2115 8.08242 17.1665 7.17244 17.217 6.01602V6.45102V5.92302C17.2121 4.7325 16.2455 3.77002 15.055 3.77002H12.89ZM8.94401 3.77002C8.17482 3.77002 7.46405 4.18038 7.07946 4.84652C6.69486 5.51266 6.69486 6.33338 7.07946 6.99952C7.46405 7.66566 8.17482 8.07602 8.94401 8.07602H11.11V3.77002H8.94401Z" fill="#2E2E2E"/>
</svg>
