<svg width="115" height="115" viewBox="0 0 115 115" fill="none" xmlns="http://www.w3.org/2000/svg">
<path fill-rule="evenodd" clip-rule="evenodd" d="M23 54.625L57.5 8.625H59.6201C67.2253 8.625 72.7361 15.8751 70.7006 23.2029L64.9811 43.793C64.4722 45.625 65.8499 47.4375 67.7512 47.4375H97.1097C105.1 47.4375 110.655 55.385 107.91 62.8887L92 106.375H17.25C10.8987 106.375 5.75 101.226 5.75 94.875V66.125C5.75 59.7737 10.8987 54.625 17.25 54.625H23ZM58.9375 11.5L25.875 55.5833V103.5H89.9905L105.21 61.9009C107.269 56.2731 103.102 50.3125 97.1097 50.3125H67.7512C63.9486 50.3125 61.1932 46.6874 62.211 43.0235L67.9305 22.4334C69.4571 16.9376 65.324 11.5 59.6201 11.5H58.9375ZM23 103.5V57.5H17.25C12.4865 57.5 8.625 61.3615 8.625 66.125V94.875C8.625 99.6385 12.4865 103.5 17.25 103.5H23Z" fill="black"/>
</svg>
