<svg width="694" height="649" viewBox="0 0 694 649" fill="none" xmlns="http://www.w3.org/2000/svg">
<path fill-rule="evenodd" clip-rule="evenodd" d="M390.224 571.483C392.479 571.109 394.07 570.567 395.757 569.926C398.525 568.877 401.078 567.437 403.773 566.297C407.878 564.559 411.465 561.959 415.25 559.713C416.485 558.979 417.864 558.242 419 557.202C420.097 556.197 421.265 555.215 422.604 554.486C422.751 554.405 423.229 554.109 422.68 553.576C422.088 553.84 421.474 553.917 420.745 554.457C417.989 556.503 414.887 558.041 411.964 559.84C408.835 561.767 405.581 563.443 402.285 565.005C400.528 565.838 398.758 566.764 397.041 567.62C394.914 568.68 392.453 569.356 390.224 571.483ZM481.038 373.128C481.249 374.064 480.366 374.563 480.952 375.608C481.536 376.644 482.418 377.191 483.095 378.014C484.043 379.162 485.379 379.433 486.675 379.263C487.777 379.117 487.554 380.081 488.148 380.462C490.376 380.149 492.556 379.641 493.991 376.939C489.548 375.798 485.973 372.918 481.038 373.128ZM201.185 504.598C197.676 499.804 186.597 489.937 181.58 489.222C182.707 490.46 183.161 492.001 185.078 492.157C185.779 492.213 186.364 493.149 187.099 493.451C188.154 493.885 187.464 495.171 188.448 495.694C189.469 496.235 190.21 497.505 191.248 497.769C192.672 498.132 192.883 499.527 193.961 500.103C194.978 500.648 196.206 501.208 196.75 502.117C197.388 503.182 199.025 503.018 199.161 504.31C199.306 505.679 201.263 504.966 201.276 506.342C202.845 507.267 203.704 509.015 205.379 509.839C205.975 510.132 206.405 510.257 206.871 509.595C206.37 508.106 205.004 507.267 204.068 506.294C204.039 505.465 205.045 504.987 204.305 504.247C204.237 504.204 204.13 504.08 204.045 504.094C203.13 504.242 202.218 504.412 201.185 504.598ZM192.784 535.92C190.998 532.835 187.728 531.535 185.478 529.08C183.145 526.539 180.535 524.308 177.926 522.082C175.236 519.789 172.427 517.637 169.687 515.439C169.509 516.036 169.494 516.78 170.099 517.186C172.339 518.692 172.815 521.892 175.6 522.848C175.973 524.756 177.734 525.331 178.964 526.439C179.836 527.224 180.505 528.259 180.598 529.152C182.138 529.725 183.111 530.363 183.953 531.569C184.648 532.565 186.123 532.929 186.66 534.202C188.374 532.98 188.572 533.09 189.817 535.709C190.232 535.554 190.194 534.869 191.113 534.917C191.509 535.156 192.147 535.538 192.784 535.92ZM277.253 429.789C283.244 432.925 289.504 435.106 295.819 437.104C303.421 439.511 311.093 441.705 318.717 444.05C319.572 444.313 320.157 444.239 320.847 443.552C306.868 438.293 292.659 434.093 278.555 429.579C278.181 429.459 277.689 429.71 277.253 429.789ZM411.727 146.631C410.348 145.673 409.135 144.685 407.789 143.935C406.468 143.198 405.499 142.049 404.197 141.248C402.456 140.178 400.506 139.534 398.852 138.313C395.571 135.889 391.936 134.066 388.352 132.133C382.734 129.106 376.724 127.088 370.801 124.835C369.438 124.315 367.989 124.014 366.579 123.613C381.254 131.703 396.735 138.089 410.893 147.016C410.99 147.077 411.271 146.848 411.727 146.631ZM84.0652 366.416C83.0802 366.852 82.4957 367.108 81.9113 367.365C81.4918 365.548 79.3574 367.098 78.5558 365.431C78.1008 363.589 78.0367 361.306 76.7849 359.31C76.2088 358.389 75.8831 358.542 75.2888 359.128C75.6193 360.769 75.5743 362.526 76.8466 363.651C76.6813 364.507 75.7 364.129 75.6122 364.894C75.9959 367.028 75.9006 369.467 76.9074 371.304C78.0206 373.335 78.0609 375.435 78.5607 377.496C79.0791 379.639 79.3705 381.838 79.7618 384.013C79.8646 384.585 79.9438 385.162 80.084 385.724C80.1317 385.917 80.3316 386.072 80.4629 386.244C81.0089 386.157 81.6042 386.258 82.0559 385.821C80.9024 383.935 81.0068 383.973 81.9796 382.376C82.4927 381.534 83.0459 382.234 83.4466 382.027C84.6317 381.422 83.747 380.133 84.2439 379.353C84.5526 378.65 85.6702 379.589 85.789 378.403C84.6213 378.119 83.2077 379.316 82.2986 377.732C82.8326 375.753 82.8326 375.753 80.7261 374.88C79.8523 374.977 80.9015 376.195 79.8635 376.357C79.8304 375.485 78.8476 374.651 80.4422 374.112C80.9162 373.952 80.9811 372.574 81.1248 372.105C81.0411 371.3 80.2014 371.441 80.4466 370.834C80.8523 369.838 81.8359 369.582 82.4691 368.996C83.1298 369.286 83.4966 369.934 84.1268 369.931C84.6254 368.683 83.0095 368.668 83.2415 367.69C83.4046 367.438 83.5914 367.151 84.0652 366.416ZM175.152 372.583C177.613 372.248 179.8 373.546 182.178 373.693C185.099 373.872 187.997 374.298 190.915 374.541C193.406 374.747 195.868 375.077 198.389 375.091C200.975 375.105 203.54 375.688 206.147 375.847C208.845 376.012 211.578 376.062 214.248 376.494C215.746 376.736 217.209 377.046 218.742 377.086C220.471 377.129 222.25 377.172 223.901 377.609C225.58 378.054 227.508 377.036 228.998 378.59C229.358 378.966 230.086 378.631 230.586 378.372C230.836 378.241 231.173 377.789 231.217 377.822C232.843 379.028 234.761 378.129 236.664 378.684C236.419 378.048 236.478 377.651 235.618 377.533C231.672 376.992 227.762 376.201 223.812 375.696C222.427 375.518 221.003 374.95 219.563 375.489C216.551 374.344 213.313 374.606 210.237 374.485C207.073 374.361 203.901 374.011 200.777 373.759C193.873 373.2 186.927 372.995 180.067 371.933C178.484 372.626 176.733 371.071 175.152 372.583ZM172.739 143.842C173.48 143.282 174.347 142.879 174.778 142.201C175.016 141.827 174.827 141.334 175.524 141.001C178.348 139.652 181.181 138.285 183.835 136.643C185.193 135.803 186.801 135.326 187.87 133.959C190.728 130.296 193.679 126.705 196.604 123.095C196.879 122.757 196.961 122.248 197.532 122.148C198.327 122.007 198.48 121.197 198.856 120.659C199.184 120.188 199.814 119.789 199.677 118.732C195.224 121.673 191.375 124.953 187.581 128.29C183.981 131.459 180.423 134.679 176.937 137.973C175.351 139.471 173.625 140.772 171.936 142.131C171.718 142.307 171.627 142.639 171.538 142.792C171.956 143.157 172.304 143.462 172.739 143.842ZM399.457 299.237C399.954 300.647 401.288 300.025 402.13 300.725C402.962 301.417 403.97 301.928 405.015 302.408C408.964 304.222 412.757 306.382 416.591 308.446C419.354 309.936 422.112 311.517 424.92 312.82C427.734 314.127 430.352 315.816 433.225 316.963C435.954 318.054 438.178 320.264 441.287 320.496C442.146 318.663 441.927 317.416 440.123 316.407C437.514 314.946 434.794 313.681 432.096 312.387C430.214 311.485 428.21 310.816 426.402 309.794C422.837 307.777 419.002 306.36 415.248 304.82C410.708 302.959 406.158 301.114 401.642 299.197C400.791 298.837 400.177 298.823 399.457 299.237ZM169.999 486.36C171.573 487.428 172.445 489.084 173.586 490.528C174.936 492.236 176.556 493.727 177.955 495.4C178.484 496.035 179.815 495.567 179.779 496.838C183.421 498.072 186.072 500.657 188.768 503.29C188.561 503.755 188.392 504.133 188.232 504.489C188.608 504.765 188.982 505.04 189.344 505.305C189.556 505.03 189.758 504.772 189.951 504.521C190.841 504.832 190.011 506.141 191.086 506.362C191.17 505.917 191.249 505.496 191.328 505.072C193.444 504.808 193.453 504.803 194.215 506.654C194.365 507.017 194.553 507.221 194.961 507.141C195.542 507.13 195.625 506.573 195.925 506.268C196.778 506.499 197.323 508.003 198.397 507.086C197.297 505.018 195.242 504.155 193.676 502.755C191.858 501.128 190.161 499.366 188.223 497.845C186.351 496.375 184.486 494.874 182.691 493.33C180.67 491.588 178.89 489.553 176.655 488.039C175.885 487.515 174.845 487.135 174.429 486.406C173.872 485.432 173.027 484.963 172.227 484.37C171.372 483.733 170.48 483.145 169.654 482.572C168.691 484.148 171.497 484.914 169.999 486.36ZM79.0716 473.272C78.7328 474.025 78.9229 474.625 79.3297 475.214C81.0485 477.699 82.4423 480.398 83.9456 482.996C86.6571 487.674 89.6595 492.137 92.743 496.55C98.0087 504.091 103.592 511.398 109.628 518.344C112.206 521.312 114.83 524.249 117.578 527.059C120.518 530.067 123.693 532.845 126.648 535.84C129.483 538.714 132.692 541.152 135.649 543.879C138.134 546.171 141.102 547.886 143.384 550.427C143.838 550.933 144.505 551.256 145.093 551.635C145.672 552.007 146.19 552.554 146.822 552.692C147.123 551.831 146.756 551.562 146.345 551.305C144.506 550.154 142.91 548.617 141.42 547.143C137.839 543.603 133.873 540.522 130.206 537.1C128.246 535.271 126.062 533.592 124.315 531.639C120.38 527.242 116.147 523.13 112.23 518.708C106.964 512.764 102.18 506.455 97.103 500.375C95.8989 498.933 95.2812 497.158 94.11 495.769C91.5254 492.701 89.1126 489.503 87.1706 486.016C85.6969 483.372 83.7048 481.092 82.3699 478.322C81.5458 476.61 80.532 474.748 79.0716 473.272ZM375.893 70.5342C376.387 70.861 376.759 71.1082 377.134 71.3572C377.564 70.5125 378.468 70.2951 379.064 69.724C380.458 69.9176 379.23 72.063 380.82 72.0767C381.354 71.707 380.631 70.8975 381.379 70.6119C382.525 70.1906 383.484 70.9486 384.52 71.1166C384.766 71.6431 384.47 72.3362 385.098 72.7144C385.712 72.0358 386.366 71.4243 387.368 71.876C389.358 72.7754 391.747 72.6962 393.443 74.3013C394.06 74.8836 395.052 74.4184 395.575 75.1595C397.119 74.3958 398.4 75.3849 399.715 75.8572C404.014 77.3994 408.342 78.8827 412.539 80.6712C418.111 83.0464 423.708 85.4288 429.03 88.2997C432.701 90.2792 436.597 91.9369 439.925 94.5409C440.447 94.95 440.928 94.9208 441.191 94.4148C428.111 83.8431 412.889 77.773 396.952 73.1592C397.326 72.6502 397.769 72.2186 397.338 71.5705C396.108 71.2287 394.795 71.0271 393.632 70.5002C392.193 69.8482 391.079 70.0474 390.286 71.2103C388.854 70.7539 387.639 70.3666 386.514 70.0087C386.357 69.4595 386.339 68.7213 386.093 68.6353C384.346 68.0284 382.658 66.8062 380.681 67.9945C380.509 66.4358 379.078 66.8978 378.416 66.252C377.356 67.0251 376.211 65.042 375.031 66.4714C374.189 67.4907 373.108 67.1872 372.421 65.9948C372.558 65.7995 372.69 65.6076 372.88 65.3364C371.861 65.6434 371.172 64.1763 370.183 64.878C369.696 65.5495 371.273 65.4808 370.367 66.2757C368.471 65.8636 366.39 65.6452 364.504 64.9185C363.246 64.4348 362.447 64.7322 361.231 65.248C362.76 65.7991 364.267 65.7066 365.019 67.1128C365.413 66.5494 365.691 65.9299 366.636 66.4569C367.498 66.9353 367.546 67.6836 367.75 68.4535C367.822 68.7311 368.111 68.7262 368.243 68.5381C368.313 68.115 368.383 67.6907 368.486 67.0664C371.207 67.9345 373.966 68.3686 376.486 69.6808C376.281 69.9757 376.149 70.1663 375.893 70.5342ZM395.795 98.4798C397.7 100.825 400.308 101.547 402.413 102.976C404.219 104.201 406.309 105.16 408.291 106.184C410.432 107.293 412.305 108.795 414.411 109.877C417.524 111.474 420.637 113.043 423.505 115.057C424.265 115.592 424.975 116.391 425.816 116.577C428.08 117.076 429.511 118.823 431.343 119.946C433.18 121.073 435.303 121.672 436.954 123.15C437.391 123.54 437.436 124.107 438.224 124.441C441.461 125.822 443.961 128.536 447.314 129.801C447.759 131.162 449.261 130.993 450.148 131.741C451.047 132.501 452.074 133.11 453.134 133.847C453.554 132.06 452.04 131.994 451.445 131.306C448.838 128.28 445.935 125.506 442.771 123.071C436.583 118.308 429.908 114.267 423.028 110.602C421.32 109.692 419.774 108.527 418.056 107.707C412.196 104.911 406.282 102.224 400.338 99.6091C399.027 99.0333 397.595 98.4908 395.795 98.4798ZM541.779 199.757C542.534 198.255 541.821 197.531 541.049 196.804L538.698 197.227C538.219 195.167 535.699 196.103 534.522 194.338C533.554 192.89 531.672 192.054 530.212 190.958C529.504 191.427 530.285 192.409 529.353 192.83C530.581 193.8 532.261 194.332 532.232 196.248L533.86 195.955C534.459 197.246 535.7 197.849 536.793 198.612C537.83 199.333 538.209 200.998 539.899 200.78C540.038 202.454 541.932 202.035 542.699 203.135C543.385 204.122 544.676 204.695 545.721 205.422C546.826 206.193 548.167 206.682 549.192 207.417C550.227 208.157 551.478 208.573 552.376 209.469C553.317 210.409 554.028 211.72 555.419 211.97C556.912 212.239 557.733 213.177 558.525 214.351C560.634 213.424 561.065 215.177 561.649 216.684C561.941 216.263 562.074 216.071 562.213 215.871C563.049 215.765 562.563 216.795 563.15 216.951C564.753 217.378 566.532 217.708 567.633 218.938C568.868 220.321 570.561 220.813 571.978 221.802C577.55 225.694 583.038 229.692 588.391 233.879C588.755 234.164 589.339 234.342 589.486 234.706C590.365 236.878 592.491 237.671 594.065 239.082C595.765 240.604 597.827 241.776 599.3 243.409C601.516 245.871 603.735 248.264 606.423 250.026C606.34 250.51 605.834 250.639 606 250.861C607.457 251.961 609.344 252.682 609.886 253.969C610.615 255.702 612.061 255.997 613.375 257.43C612.445 254.223 612.445 254.223 610.432 252.786C611.053 251.555 609.216 250.725 609.857 249.301C608.555 249.23 606.905 249.741 606.777 247.63C606.751 247.215 606.491 246.947 606.182 246.869C603.886 246.289 602.86 244.162 601.285 242.743C600.042 241.624 598.516 240.453 598.669 238.578C596.82 238.163 595.578 237.316 594.61 236.054C594.888 235.623 595.073 235.334 595.292 234.993C594.342 234.754 593.401 234.515 592.436 234.272C592.183 233.087 591.407 232.178 590.643 231.248L589.278 231.494C588.917 230.421 587.98 229.936 587.128 229.413C586.343 228.932 586.176 227.844 584.898 227.733C583.992 227.655 583.166 226.636 582.307 226.037C582 225.294 582.212 224.339 581.451 223.543C581.317 224.223 581.234 224.645 581.05 225.574C580.657 223.744 579.198 224.005 578.315 223.304C576.857 222.144 575.27 221.149 573.739 220.085C572.451 220.907 572.865 218.708 571.7 218.984C570.348 219.306 571.453 217.294 570.331 217.234C570.12 217.473 569.925 217.694 570.112 217.481C568.183 216.143 566.392 214.901 564.6 213.659C564.06 213.39 565.378 213.059 564.635 212.63C563.484 211.839 563.567 214.439 562.342 213.372C562.119 212.938 563 212.766 562.511 212.251C561.908 212.012 561.196 212.75 560.565 212.128C560.949 211.694 561.341 211.25 561.165 210.953C560.705 210.258 560.348 210.411 560.02 210.475C558.561 210.762 557.227 210.706 556.379 209.222C554.965 209.454 554.799 207.918 553.86 207.43C552.833 206.896 552.016 205.9 550.957 205.507C547.54 204.235 545.034 201.608 541.779 199.757ZM311.595 54.7102C312.036 53.6104 313.146 53.5321 313.945 53.645C319.011 54.3585 324.133 54.2567 329.218 54.8026C331.891 55.0892 334.692 55.2278 337.445 55.0711C339.627 54.9472 341.742 55.6651 343.953 55.5984C346.332 55.526 348.691 56.1207 351.093 56.2136C353.119 56.2921 355.068 57.1012 357.148 57.247C360.161 57.4569 363.16 57.9336 366.14 58.449C368.046 58.7786 370.048 58.8418 371.778 59.8559C372.232 60.1234 372.647 59.9719 373.068 60.0447C374.871 60.3549 376.675 60.6128 378.452 61.1454C382.168 62.2581 385.992 63.0113 389.688 64.1785C392.371 65.0275 395.09 65.7112 397.789 66.4777C400.388 67.2169 402.973 68.0079 405.539 68.8506C411.555 70.8253 417.474 73.0716 423.216 75.7353C427.708 77.8186 432.011 80.2551 436.256 82.839C439.696 84.9345 443.209 86.9334 446.319 89.4517C448.814 91.4721 451.616 93.1414 453.883 95.3475C456.02 97.4284 458.286 99.4066 460.462 101.419C465.499 106.082 470.33 110.935 474.971 115.965C477.703 118.927 480.391 121.967 483.16 124.874C486.409 128.285 489.247 132.039 492.484 135.459C494.378 137.461 496.073 139.788 497.866 141.944C499.602 144.032 501.035 146.348 502.901 148.326C504.764 150.302 506.324 152.567 507.956 154.695C509.491 156.698 511.592 158.485 512.311 161.098C514.389 161.899 514.787 164.137 516.022 165.642C517.245 167.131 518.409 168.753 519.708 170.152C521.048 171.594 522.375 173.101 523.661 174.565C526.272 177.54 529.15 180.246 531.752 183.195C533.341 184.997 535.355 186.184 537.052 187.798C540.284 190.87 543.896 193.584 547.706 195.976C549.232 196.934 550.695 198.022 551.86 199.389C552.75 200.429 554.123 200.22 555.113 201.051C556.713 202.394 558.538 203.469 560.242 204.692C560.809 205.099 561.359 205.447 562.069 205.185C562.274 205.882 562.43 206.412 562.575 206.904C563.188 207.338 562.97 206.488 563.407 206.466C564.154 206.901 565.073 207.18 565.556 208.122C566.011 209.007 567.111 208.639 567.817 209.275C569.357 210.661 571.956 210.592 572.901 212.875C574.927 213.193 576.45 214.582 578.235 215.416C579.13 215.835 579.969 216.457 580.391 217.469C580.752 218.34 582.339 217.431 582.394 218.803C585.773 219.628 587.779 222.482 590.244 224.504C594.194 227.747 598.413 230.709 601.841 234.647C603.556 236.616 605.908 238.166 607.693 240.138C611.706 244.573 616.027 248.742 619.503 253.661C620.94 255.694 622.831 257.407 624.248 259.451C627.256 263.786 630.272 268.123 632.941 272.683C633.44 273.536 634.099 274.294 634.106 275.405C634.115 276.598 635.518 276.763 636.049 277.74C636.681 278.895 636.689 280.243 637.581 281.373C638.074 281.996 638.369 283.208 638.938 283.933C640.79 286.287 641.063 289.414 642.969 291.722C643.689 292.596 643.702 293.862 643.954 294.886C644.811 298.368 647.214 301.266 647.597 304.858C647.806 306.826 648.562 308.535 649.619 310.103C649.959 310.607 650.339 311.118 650.229 311.601C649.841 313.291 650.804 314.689 651.162 316.187C651.544 317.789 652.481 319.241 652.681 320.955C652.884 322.688 652.89 324.605 653.671 326.075C655.069 328.709 655.201 331.552 655.725 334.325C655.986 335.713 656.863 337.114 655.875 338.656C655.357 339.467 657.593 339.668 656.644 340.914C656.081 341.652 656.404 342.316 656.961 343.038C657.471 343.698 656.396 344.766 657.092 345.365C657.775 345.958 658.426 347 658.056 347.326C657.126 348.142 658.73 348.851 657.914 349.465C657.849 349.515 657.82 349.683 657.848 349.773C658.76 352.757 657.93 355.886 658.697 358.925C659.146 360.701 659.058 362.7 658.8 364.54C658.552 366.303 658.649 368.068 658.691 369.779C658.768 372.761 657.94 375.636 658.047 378.592C658.075 379.392 656.197 379.924 657.708 380.946C656.829 381.756 657.605 382.695 657.475 383.543C657.38 384.175 656.864 384.742 656.443 385.508C656.886 387.096 656.413 388.73 656.052 390.505C655.361 393.902 654.522 397.254 653.416 400.508C651.897 404.984 650.57 409.593 647.703 413.472C647.112 414.27 647.844 414.992 647.402 415.745C644.837 420.131 642.73 424.762 639.361 428.695C637.951 430.343 637.089 432.566 635.656 434.266C632.78 437.68 630.385 441.455 626.97 444.493C624.944 446.296 623.138 448.476 621.115 450.37C616.913 454.301 612.568 458.068 607.53 460.903C603.762 463.024 600.039 465.224 596.096 467.044C594.74 467.67 593.23 467.799 592.046 468.496C590.818 469.217 589.593 469.59 588.27 469.764C587.222 469.903 586.777 471.049 585.584 471.047C584.654 471.047 583.583 471.039 582.8 472.09C582.44 472.571 581.283 472.461 580.485 472.61C579.339 472.821 578.184 473.206 577.045 473.173C576.108 473.144 575.613 474.737 574.544 473.729C573.857 474.975 572.539 474.646 571.478 474.925C570.466 475.187 569.417 475.312 568.385 475.498L564.941 476.117C563.91 476.303 562.735 476.239 561.874 476.728C560.215 477.673 558.32 477.525 556.59 478.231C554.69 479.008 552.506 479.136 550.429 479.418C548.616 479.663 547.241 481.023 545.336 481.117C543.488 481.211 541.457 481.335 539.88 482.161C538.099 483.093 535.974 482.87 534.481 483.892C532.701 485.111 530.647 484.616 528.958 485.472C525.276 487.342 521.127 487.979 517.478 489.737C512.872 491.954 508.02 493.587 503.502 496.039C500.561 497.635 497.66 499.331 494.718 500.925C491.803 502.505 489.19 504.682 486.566 506.752C483.284 509.34 480.323 512.278 477.489 515.365C474.646 518.466 472.308 521.959 469.525 525.09C468.257 526.517 467.28 528.147 465.957 529.546C464.531 531.055 463.696 533.118 462.275 534.634C458.722 538.424 456.259 543.121 452.263 546.526C448.673 552.007 443.427 555.986 439.176 560.876C437.059 563.311 434.265 565.153 431.809 567.298C427.729 570.862 423.322 573.99 418.94 577.16C414.912 580.076 410.654 582.607 406.287 584.964C403.148 586.661 399.925 588.204 396.818 589.957C395.559 590.669 393.862 590.291 392.913 591.645C389.668 592.1 387.03 594.369 383.749 594.715C382.065 596.112 379.952 596.183 377.955 596.416C376.431 596.595 375.516 597.974 373.895 597.967C372.405 597.962 370.669 598.055 369.474 598.8C367.3 600.154 364.908 600.168 362.596 600.624C357.22 601.684 351.826 602.658 346.417 603.526C344.641 603.811 342.912 604.735 341.014 604.096C339.347 603.536 337.739 605.026 336.011 604.261C335.383 603.982 335.216 605.114 334.415 605.044C332.855 604.906 331.42 606.053 329.708 605.331C328.383 604.771 326.921 606.246 325.406 605.333C324.491 604.782 323.784 607.311 322.573 605.726C320.706 606.362 318.785 606.015 316.884 606.03C315.313 606.043 313.874 607.033 312.171 606.386C310.721 605.834 309.097 607.392 307.57 606.288C305.383 607.198 303.087 606.258 300.832 606.72C299.136 607.067 297.305 606.918 295.549 606.794C292.827 606.602 290.098 606.488 287.377 606.445C286.373 606.427 285.416 606.309 284.441 606.184C283.9 606.116 283.557 605.599 282.878 605.728C278.587 606.538 274.324 605.664 270.118 605.098C267.587 604.758 264.964 604.653 262.45 603.848C261.766 603.63 260.621 603.865 259.919 603.451C257.852 602.235 255.513 602.269 253.297 601.925C252.073 601.736 250.954 601.477 249.864 600.963C249.656 600.866 249.456 600.563 249.291 600.59C246.212 601.095 243.563 599.502 240.744 598.804C238.02 598.13 235.415 596.949 232.68 596.347C227.165 595.132 222.016 592.782 216.573 591.355C214.797 590.89 213.119 590.051 211.83 589.551C210.616 589.376 210.714 590.431 209.793 590.432C208.98 590.41 208.514 589.674 208.057 588.659C205.63 589.582 203.643 587.971 201.56 587.188C196.638 585.337 191.784 583.268 187.033 581.019C183.908 579.538 180.752 578.134 177.779 576.26C168.36 570.32 159.184 564.025 150.187 557.484C146.759 554.99 143.298 552.498 140.004 549.827C137.204 547.556 134.368 545.283 131.732 542.849C125.567 537.156 119.402 531.454 113.669 525.298C109.286 520.592 105.207 515.645 101.111 510.7C98.4845 507.532 96.0135 504.262 93.664 500.887C89.9073 495.49 86.2728 490.028 82.7629 484.461C79.4639 479.225 77.3512 473.385 73.7803 468.341C73.0975 464.596 70.1816 461.751 69.6108 457.963C68.2307 456.564 68.0634 454.569 67.4127 452.879C66.7443 451.141 65.5924 449.511 65.5373 447.488C65.5119 446.565 64.3835 445.927 64.3626 444.798C64.3447 443.857 64.2119 442.844 63.3867 442.147C64.3181 441.117 62.5825 440.885 62.737 439.912C62.892 438.934 62.7173 437.687 62.1998 436.86C60.932 434.833 61.3217 432.291 60.2556 430.421C59.0985 428.393 59.4636 426.12 58.4999 424.254C57.3164 421.964 58.2399 419.463 57.3386 417.205C57.2597 417.006 57.6421 416.625 57.8122 416.325C57.5181 415.863 57.011 416.21 56.4473 415.988C56.7392 415.141 57.2423 414.287 57.2793 413.414C57.3218 412.39 56.9617 411.351 56.7455 410.149C55.9501 409.704 55.0465 409.201 54.2556 408.76C54.3387 407.324 53.6729 406.339 54.0619 405.076C54.2324 404.524 53.5112 403.369 53.1868 402.493C52.7618 401.347 53.9134 400.063 53.1878 399.326C52.2213 398.343 52.3177 397.227 52.1203 396.159C50.284 386.184 48.4893 376.201 46.7316 366.212C46.543 365.143 45.8195 364.004 46.7687 362.921C44.8858 362.131 46.733 360.781 46.3073 359.697C45.9158 358.701 46.1477 357.549 46.2339 356.427C46.3811 354.515 45.625 352.543 45.3337 350.584C45.1408 349.272 44.6725 348.046 45.2276 346.583C45.6694 345.417 44.9389 344.029 45.0413 342.613C45.1644 340.908 45.4192 339.071 45.0705 337.299C44.8361 336.098 44.597 334.95 45.0459 333.65C45.3789 332.683 44.2375 331.453 45.2396 330.395C44.6818 328.077 45.2934 325.791 45.3807 323.487C45.5888 317.945 46.2215 312.458 47.0903 306.988C47.8164 302.405 48.4671 297.808 49.2378 293.234C49.4883 291.75 49.7984 290.258 50.1534 288.806C51.4318 283.569 52.5837 278.261 54.4281 273.216C56.0733 268.721 57.5142 264.142 59.3601 259.707C60.342 257.349 60.8595 254.75 61.7464 252.306C63.8356 246.55 66.0814 240.861 68.6174 235.285C70.8416 230.396 72.9373 225.444 76.0847 221.029C76.9133 219.868 77.4037 218.473 78.1608 217.257C79.0233 215.873 80.2424 214.667 80.8817 213.201C81.7123 211.292 83.0611 209.728 83.9461 207.912C84.633 206.501 86.6086 206.291 86.6628 204.26C86.7035 202.785 89.0259 202.323 89.1309 200.574C91.1535 199.627 91.1751 197.161 92.8934 195.797C94.5543 194.476 95.5081 192.267 96.7718 190.447C98.0377 188.626 99.1238 186.638 100.612 185.016C103.35 182.032 105.278 178.439 107.918 175.441C110.435 172.581 112.336 169.157 115.426 166.839C116.157 166.291 115.697 165.637 116.125 165.089C116.572 164.517 117.301 164.456 117.671 163.861C119.169 161.44 121.07 159.327 122.923 157.189C125.557 154.151 128.285 151.176 130.887 148.126C134.932 143.382 139.392 139.094 143.888 134.822C146.818 132.038 149.845 129.359 152.844 126.649C156.327 123.503 159.782 120.327 163.329 117.258C166.034 114.919 168.896 112.763 171.628 110.456C173.794 108.626 175.889 106.713 177.98 104.798C180.872 102.149 183.861 99.5991 186.76 96.9785C190.883 93.2461 195.236 89.8505 199.722 86.621C201.983 84.9933 204.244 83.3396 206.739 81.9863C208.304 81.1368 209.936 80.1239 211.359 79.0495C214.27 76.8527 217.585 75.5644 220.724 73.8752C221.827 73.2806 223.006 73.0099 224.085 72.5148C225.094 72.0504 226.115 71.6974 227.136 71.2908C230.193 70.0737 233.476 69.4245 236.323 67.6796C236.508 67.567 236.733 67.4717 236.945 67.457C240.638 67.2174 243.859 65.1578 247.546 64.7863C250.828 64.4565 253.757 62.5183 257.124 62.3974C258.773 60.8876 261.053 61.3804 262.892 60.6025C267.848 58.5083 273.179 58.2425 278.342 57.186C283.48 56.1365 288.665 55.3172 293.825 54.368C297.482 53.6944 301.186 53.9818 304.864 53.9118C305.658 53.8952 306.578 54.2771 307.452 54.0442C308.945 53.6441 310.302 53.9408 311.595 54.7102Z" fill="#CBEDFB"/>
</svg>
